<svg xmlns="http://www.w3.org/2000/svg" xmlns:xlink="http://www.w3.org/1999/xlink" fill="none" version="1.1" width="120" height="83.48480224609375" viewBox="0 0 120 83.48480224609375"><defs><radialGradient cx="0" cy="0" r="1" gradientUnits="userSpaceOnUse" id="master_svg0_0_3115" gradientTransform="translate(60.00000715255737 50.24999315621062) rotate(90.00000815545211) scale(50.2499855268166 136.79953442533613)"><stop offset="0%" stop-color="#6CB678" stop-opacity="0"/><stop offset="100%" stop-color="#46A055" stop-opacity="1"/></radialGradient><radialGradient cx="0" cy="0" r="1" gradientUnits="userSpaceOnUse" id="master_svg1_0_3115" gradientTransform="translate(180.00000715255737 133.73479540230437) rotate(90.00000815545211) scale(50.2499855268166 136.79953442533613)"><stop offset="0%" stop-color="#6CB678" stop-opacity="0"/><stop offset="100%" stop-color="#46A055" stop-opacity="1"/></radialGradient></defs><g style="mix-blend-mode:passthrough"><g style="mix-blend-mode:passthrough"><path d="M0,14.691707629394532C0,6.577687629394531,6.57768,0.00000762939453125,14.6917,0.00000762939453125C14.6917,0.00000762939453125,100,0.00000762939453125,100,0.00000762939453125C111.046,0.00000762939453125,120,8.947167629394531,120,19.99290762939453C120,54.87270762939453,120,117.86600762939453,120,60.00000762939453C120,3.641267629394531,55.7131,17.73020762939453,21.2466,29.33380762939453C11.1219,32.742407629394535,0,25.374707629394532,0,14.691707629394532C0,14.691707629394532,0,14.691707629394532,0,14.691707629394532C0,14.691707629394532,0,14.691707629394532,0,14.691707629394532Z" fill="url(#master_svg0_0_3115)" fill-opacity="1" style="mix-blend-mode:luminosity"/></g><g style="mix-blend-mode:passthrough" transform="matrix(-1,-1.2246468525851679e-16,1.2246468525851679e-16,-1,240,166.96961975097656)"><path d="M120,98.17650987548828C120,90.06248987548828,126.57768,83.48480987548828,134.6917,83.48480987548828C134.6917,83.48480987548828,220,83.48480987548828,220,83.48480987548828C231.046,83.48480987548828,240,92.43196987548828,240,103.47770987548827C240,138.3575098754883,240,201.35080987548827,240,143.48480987548828C240,87.12606987548828,175.7131,101.21500987548828,141.2466,112.81860987548828C131.1219,116.22720987548828,120,108.85950987548829,120,98.17650987548828C120,98.17650987548828,120,98.17650987548828,120,98.17650987548828C120,98.17650987548828,120,98.17650987548828,120,98.17650987548828Z" fill="url(#master_svg1_0_3115)" fill-opacity="1" style="mix-blend-mode:luminosity"/></g><g style="mix-blend-mode:passthrough"><path d="M36.7578,34.46354L36.7578,50.8763C36.7578,51.273399999999995,36.6211,51.397099999999995,36.236999999999995,51.4167C35.8398,51.4167,34.5768,51.4427,33.177099999999996,51.397099999999995C33.3984,51.800799999999995,33.6393,52.4388,33.7174,52.822900000000004C35.5794,52.8424,36.6797,52.7969,37.337199999999996,52.582C37.975300000000004,52.321600000000004,38.2552,51.898399999999995,38.2552,50.8763L38.2552,34.46354L36.7578,34.46354ZM32.8581,36.54037L32.8581,47.7839L34.2969,47.7839L34.2969,36.54037L32.8581,36.54037ZM22.838540000000002,41.7487L22.838540000000002,50.349000000000004C22.838540000000002,52.25,23.4375,52.6667,25.3776,52.6667C25.79427,52.6667,28.639319999999998,52.6667,29.09505,52.6667C30.8789,52.6667,31.3151,51.8919,31.5169,48.9688C31.1003,48.8581,30.5208,48.6237,30.175800000000002,48.3438C30.0781,50.8958,29.9349,51.3711,28.9974,51.3711C28.378909999999998,51.3711,25.99609,51.3711,25.494790000000002,51.3711C24.47917,51.3711,24.31641,51.2214,24.31641,50.400999999999996L24.31641,43.0833L28.639319999999998,43.0833C28.47656,45.4596,28.294269999999997,46.4167,28.0599,46.6901C27.91667,46.865899999999996,27.76042,46.885400000000004,27.48047,46.885400000000004C27.20052,46.885400000000004,26.4974,46.865899999999996,25.755209999999998,46.787800000000004C25.95703,47.165400000000005,26.119790000000002,47.6862,26.139319999999998,48.0833C26.9401,48.148399999999995,27.71484,48.1289,28.11849,48.1094C28.619790000000002,48.0443,28.95833,47.927099999999996,29.25781,47.588499999999996C29.72005,47.087199999999996,29.9349,45.7526,30.1172,42.3477C30.136699999999998,42.1458,30.136699999999998,41.7487,30.136699999999998,41.7487L22.838540000000002,41.7487ZM26.25651,34.17057C25.19531,36.85287,23.07943,39.73047,20.533854,41.6185C20.878906,41.865899999999996,21.39974,42.3672,21.63411,42.6667C23.619790000000002,41.1237,25.31901,39.040369999999996,26.59505,36.77474C28.17708,38.40885,29.91536,40.4857,30.800800000000002,41.8333L31.8945,40.8307C30.9375,39.39844,28.919269999999997,37.15234,27.23958,35.4401L27.65625,34.54818L26.25651,34.17057ZM50.5208,34.34636C49.5182,37.3151,47.897099999999995,40.225300000000004,46.100300000000004,42.1198C46.4388,42.3542,47.0182,42.875,47.259100000000004,43.135400000000004C48.274699999999996,42.0156,49.2578,40.5508,50.1172,38.916669999999996L51.4974,38.916669999999996L51.4974,52.861999999999995L53.0208,52.861999999999995L53.0208,47.8424L59.0365,47.8424L59.0365,46.4167L53.0208,46.4167L53.0208,43.213499999999996L58.776,43.213499999999996L58.776,41.8333L53.0208,41.8333L53.0208,38.916669999999996L59.2383,38.916669999999996L59.2383,37.47787L50.8398,37.47787C51.2565,36.59245,51.6406,35.66146,51.959599999999995,34.73047L50.5208,34.34636ZM45.696600000000004,34.18359C44.5768,37.25651,42.6953,40.2643,40.7161,42.2174C40.9961,42.556,41.4388,43.3828,41.5951,43.740899999999996C42.2786,43.0182,42.9362,42.2174,43.574200000000005,41.332L43.574200000000005,52.8424L45.0781,52.8424L45.0781,38.96224C45.8594,37.60156,46.575500000000005,36.104169999999996,47.135400000000004,34.6263L45.696600000000004,34.18359ZM68.9974,35.10156L68.9974,45.9805L70.45570000000001,45.9805L70.45570000000001,36.416669999999996L76.6406,36.416669999999996L76.6406,45.9805L78.138,45.9805L78.138,35.10156L68.9974,35.10156ZM63.0794,34.83464C63.7956,35.6224,64.57679999999999,36.7487,64.9349,37.5625L66.1589,36.68359C65.79429999999999,35.96094,65,34.91927,64.2188,34.14453L63.0794,34.83464ZM72.74090000000001,38.05078L72.74090000000001,42.0026C72.74090000000001,45.2057,72.1354,49.099000000000004,67.07679999999999,51.761700000000005C67.3763,52.0026,67.85810000000001,52.5625,68.0404,52.8945C71.0352,51.299499999999995,72.6172,49.1185,73.418,46.898399999999995L73.418,50.850300000000004C73.418,52.197900000000004,73.95830000000001,52.5625,75.319,52.5625L77.1354,52.5625C78.8802,52.5625,79.10159999999999,51.7422,79.2969,48.5456C78.91929999999999,48.447900000000004,78.418,48.239599999999996,78.0404,47.9336C77.95570000000001,50.8698,77.85810000000001,51.4167,77.16149999999999,51.4167L75.5404,51.4167C74.9805,51.4167,74.8177,51.2539,74.8177,50.6875L74.8177,45.635400000000004L73.79560000000001,45.635400000000004C74.0951,44.3919,74.1797,43.168,74.1797,42.0482L74.1797,38.05078L72.74090000000001,38.05078ZM61.2565,37.666669999999996L61.2565,39.04688L66.1003,39.04688C64.9349,41.638,62.8385,44.1836,60.7747,45.6094C60.9961,45.8958,61.3542,46.6706,61.4779,47.100300000000004C62.2591,46.5078,63.0339,45.7786,63.7956,44.9388L63.7956,52.8555L65.2148,52.8555L65.2148,44.0859C65.918,45.0039,66.7773,46.162800000000004,67.1745,46.7943L68.138,45.5703C67.7604,45.1211,66.35419999999999,43.4935,65.59899999999999,42.6602C66.556,41.2734,67.3763,39.72396,67.9362,38.14844L67.1354,37.60156L66.8555,37.666669999999996L61.2565,37.666669999999996ZM94.0169,41.0977C93.9779,48.207,93.7565,50.5638,88.9193,51.885400000000004C89.1797,52.1458,89.5378,52.634100000000004,89.6549,52.959599999999995C94.8568,51.4557,95.2409,48.6562,95.2799,41.0977L94.0169,41.0977ZM94.5573,49.5677C95.8984,50.5833,97.6172,52.0482,98.457,52.9401L99.3555,51.963499999999996C98.4961,51.0911,96.7383,49.6914,95.3971,48.7148L94.5573,49.5677ZM88.5547,43.4349C87.5195,47.6602,85.2148,50.4206,80.97659999999999,51.7812C81.27600000000001,52.087199999999996,81.6146,52.5951,81.7578,52.959599999999995C86.2956,51.332,88.7565,48.350300000000004,89.8568,43.740899999999996L88.5547,43.4349ZM82.6562,43.207C82.25909999999999,44.7109,81.5951,46.2344,80.73570000000001,47.2695C81.07419999999999,47.4323,81.6146,47.7773,81.8555,47.9857C82.6953,46.865899999999996,83.47659999999999,45.1602,83.91929999999999,43.4935L82.6562,43.207ZM90.8789,38.916669999999996L90.8789,48.4935L92.1549,48.4935L92.1549,40.1016L97.0768,40.1016L97.0768,48.447900000000004L98.4375,48.447900000000004L98.4375,38.916669999999996L94.8372,38.916669999999996L95.638,36.50781L98.9974,36.50781L98.9974,35.166669999999996L90.3581,35.166669999999996L90.3581,36.50781L94.1797,36.50781C93.9779,37.28906,93.7174,38.20703,93.4375,38.916669999999996L90.8789,38.916669999999996ZM82.2786,35.73307L82.2786,40.4792L80.7747,40.4792L80.7747,41.8333L84.9544,41.8333L84.9544,48.0312L86.3151,48.0312L86.3151,41.8333L90.0391,41.8333L90.0391,40.4792L86.6797,40.4792L86.6797,38.083330000000004L89.5768,38.083330000000004L89.5768,36.80729L86.6797,36.80729L86.6797,34.13151L85.319,34.13151L85.319,40.4792L83.5156,40.4792L83.5156,36.01302L82.2786,35.73307Z" fill="#B8B8B8" fill-opacity="1"/></g></g></svg>