<svg xmlns="http://www.w3.org/2000/svg" xmlns:xlink="http://www.w3.org/1999/xlink" fill="none" version="1.1" width="30" height="30" viewBox="0 0 30 30"><g style="mix-blend-mode:passthrough"><g style="mix-blend-mode:passthrough"><path d="M30,15C30,23.2843,23.2843,30,15,30C6.71572,30,0,23.2843,0,15C0,6.71572,6.71572,0,15,0C23.2843,0,30,6.71572,30,15ZM4.5975,23.6051C4.84123,23.426,5.12863,23.2643,5.44932,23.1091C6.04217,22.8226,7.82669,22.2683,9.23448,21.8494C9.23981,21.8388,9.25806,21.8026,9.28508,21.7486L9.34208,21.6343C9.41745,21.4827,9.52005,21.2746,9.6108,21.0845C9.75097,20.7904,9.66698,20.5497,9.63503,20.4776L9.62438,20.4555C9.22522,21.3592,8.2497,21.535,8.35567,21.5029C8.46165,21.4708,8.54303,21.166,8.55938,20.9576C8.56953,20.8287,8.46295,20.4655,8.36004,20.1149C8.29652,19.8984,8.2344,19.6868,8.202,19.538C8.15648,19.3288,8.27445,18.9545,8.43315,18.5854C8.00205,18.9608,7.58273,18.9825,7.65937,18.9513C7.77975,18.9025,7.8726,18.4383,7.89112,18.1206C7.89405,18.0704,7.8825,17.9978,7.86052,17.9088C7.51522,17.9128,7.19574,17.8601,7.19574,17.8601C7.19574,17.8601,7.49104,17.8151,7.78935,17.6655C7.62772,17.162,7.32084,16.4199,7.25191,15.9949C7.16706,15.4733,7.69553,14.26,8.06347,13.5169L8.06445,13.5144L8.09872,13.493C8.41702,13.2593,8.51085,12.8039,8.52345,12.7353L8.52495,12.7265C8.52495,12.7265,8.52098,12.714,8.38508,12.9149C8.34982,12.967,8.24865,13.1492,8.1201,13.4036L8.06445,13.5144L8.01443,13.5464C7.98472,13.5625,7.95337,13.5766,7.92023,13.5885C7.5225,13.7314,7.13909,13.859,6.96292,13.9169L6.88853,13.9413C6.87135,13.9468,6.86219,13.9499,6.86219,13.9499C6.86219,13.9499,7.4255,13.2061,7.63793,12.3054C7.84613,11.4212,8.6754,7.8483,8.72265,7.64482L8.72475,7.63583C8.72475,7.63583,9.48923,2.2194,15.7638,2.74077C15.7638,2.74077,17.4189,3.00664,18.2094,3.79945L18.233,3.79041C18.364,3.74282,19.0103,3.53957,19.4662,3.97324C19.9756,4.45774,20.9281,5.98518,21.3233,8.11373L21.3241,8.1177C21.3241,8.1177,21.7332,10.01,22.0551,11.3147L22.1304,11.6153C22.2036,11.9021,22.2694,12.1435,22.3211,12.3054C22.5718,13.0911,22.9004,13.5271,22.9742,13.6188L22.9894,13.6371C22.9894,13.6371,22.3624,13.8038,21.9056,13.4494L21.83,13.3877L21.8388,13.4036C22.206,14.1304,22.7962,15.4458,22.7071,15.9949C22.6603,16.2825,22.5046,16.7155,22.3585,17.1218C22.2029,17.5545,22.0583,17.9567,22.0679,18.1206C22.0864,18.4383,22.179,18.9025,22.2996,18.9513C22.3696,18.9798,22.0266,18.9642,21.6379,18.6761C21.8689,19.0192,22.1236,19.2948,22.1236,19.2948C22.1236,19.2948,22.0934,19.2811,22.0427,19.2564L21.9163,19.1934C21.6694,19.067,21.2638,18.8406,21.0526,18.6196L21.0395,18.6039L21.0245,18.5739C20.8551,18.2334,20.6919,17.9536,20.6339,17.88L20.6209,17.917C20.5954,17.9861,20.5766,18.0629,20.5704,18.146C20.6925,18.1914,20.8402,18.2871,20.9521,18.4884L20.9954,18.5535L21.0395,18.6039L21.0841,18.6957C21.3023,19.1499,21.5116,19.6767,21.5004,19.9657L21.4917,20.0384C21.4593,20.1876,21.397,20.3998,21.3334,20.6167C21.2307,20.9669,21.1244,21.3293,21.1345,21.458C21.1468,21.6156,21.1964,21.8282,21.2656,21.9364C22.6187,22.3423,24.2066,22.842,24.7592,23.1091C24.9839,23.2179,25.2231,23.3835,25.4426,23.5564C27.3533,21.2274,28.5,18.2476,28.5,15C28.5,7.54418,22.4558,1.5,15,1.5C7.54418,1.5,1.5,7.54418,1.5,15C1.5,18.2702,2.6628,21.2689,4.5975,23.6051ZM15.1046,24.2722C15.1046,24.2722,11.8838,24.3077,11.223,22.1389C11.47,22.2069,11.7369,22.2455,12.0164,22.234L12.2838,19.246C12.2838,19.246,12.2791,19.2398,12.2703,19.2281C13.1275,19.8847,14.1859,20.4763,15.1285,20.4763L15.1499,20.4763C15.9288,20.4763,16.7857,20.0286,17.5529,19.4805L17.9426,22.234C18.3059,22.249,18.6693,22.18,19.0053,22.0722C18.3909,24.3084,15.1046,24.2722,15.1046,24.2722ZM19.8943,13.9402C19.4463,15.1418,19.0476,16.6704,18.2917,17.738C17.835,18.3829,16.937,18.6332,16.1277,18.7686L16.113,18.7721C16.0214,18.7898,15.5951,18.805,15.9141,17.4398L14.3798,17.4398C14.6989,18.805,14.2726,18.7898,14.1809,18.7721L14.1662,18.7686L14.1643,18.768C13.1651,18.6257,12.1823,18.1499,11.6564,17.3785C10.7789,16.0912,10.3972,14.2724,9.96692,13.0709C9.99904,12.9692,10.0455,12.8722,10.1125,12.7953C10.4137,12.4493,10.2689,11.3966,10.4666,10.0609C10.6186,9.03337,11.4813,8.63805,12.2087,8.38665L12.4219,8.31503C12.5603,8.26958,12.6899,8.22787,12.8039,8.18602C13.545,7.9146,15.3733,8.0808,16.4849,7.68983C16.9858,7.51365,17.3338,7.20969,17.5648,6.92867C17.8648,6.56419,18.3069,6.81424,18.7172,7.04624L18.7341,7.05583L18.7415,7.06001C18.9886,7.20112,19.1282,7.27725,19.2641,8.54782C19.3999,9.81833,20.2981,11.5019,20.2981,11.5019L19.9399,13.6953C19.9257,13.7754,19.9104,13.8571,19.8943,13.9402ZM12.9141,10.8957C12.7204,10.8662,12.5114,10.8598,12.3031,10.8608C12.0948,10.8653,11.8871,10.8828,11.6945,10.9121C11.5019,10.9422,11.3238,10.9792,11.1742,11.0223C10.9405,11.0871,10.775,11.1565,10.713,11.1843L10.686,11.1967L10.7098,11.1935C10.7331,11.1904,10.773,11.1851,10.8267,11.1778C10.9153,11.1636,11.0434,11.1517,11.1953,11.1341C11.3473,11.1167,11.5244,11.1014,11.7136,11.0859C11.7686,11.0826,11.8247,11.0792,11.8814,11.0758C11.7055,11.2052,11.591,11.4152,11.591,11.6522C11.591,12.0457,11.9061,12.3645,12.295,12.3645C12.6842,12.3645,12.9992,12.0457,12.9992,11.6522C12.9992,11.406,12.8759,11.189,12.6882,11.0616C12.7595,11.063,12.8297,11.0644,12.8979,11.0705C12.9925,11.0757,13.0839,11.0803,13.17,11.0906C13.2561,11.1002,13.3389,11.1042,13.4135,11.1172C13.4886,11.129,13.5584,11.1367,13.6206,11.1437C13.6819,11.1552,13.7351,11.1654,13.7791,11.1737C13.8321,11.1835,13.8721,11.1898,13.8955,11.1933L13.9195,11.1967C13.9195,11.1967,13.8734,11.1734,13.7902,11.1367C13.7075,11.099,13.5875,11.0476,13.4368,11.0051C13.3625,10.9795,13.2798,10.9619,13.1919,10.9436C13.1046,10.9228,13.0114,10.9061,12.9141,10.8957ZM11.8814,11.0758C11.9224,11.0733,11.9637,11.0708,12.0053,11.0683L11.8832,11.0745C11.8826,11.0749,11.882,11.0754,11.8814,11.0758ZM18.4607,10.8957C18.267,10.8662,18.058,10.8598,17.8497,10.8608C17.6414,10.8653,17.4338,10.8828,17.241,10.9121C17.0485,10.9422,16.8706,10.9792,16.7209,11.0223C16.4204,11.1056,16.2326,11.1967,16.2326,11.1967C16.2326,11.1967,16.2838,11.1899,16.3733,11.1778C16.462,11.1636,16.59,11.1517,16.7419,11.1341C16.8938,11.1167,17.071,11.1014,17.2601,11.0859C17.3152,11.0826,17.3713,11.0792,17.4281,11.0758C17.2521,11.2052,17.1376,11.4152,17.1376,11.6522C17.1376,12.0457,17.4527,12.3645,17.8417,12.3645C18.2309,12.3645,18.5459,12.0457,18.5459,11.6522C18.5459,11.406,18.4225,11.189,18.2345,11.0616C18.3059,11.063,18.3763,11.0644,18.4447,11.0705C18.5391,11.0757,18.6305,11.0803,18.7166,11.0906C18.8027,11.1002,18.8854,11.1042,18.9604,11.1172C19.0352,11.129,19.105,11.1367,19.1672,11.1437C19.2285,11.1552,19.2817,11.1654,19.3256,11.1737C19.3787,11.1835,19.4187,11.1898,19.4422,11.1933L19.4662,11.1967C19.4662,11.1967,19.42,11.1734,19.3369,11.1367C19.2542,11.099,19.1341,11.0476,18.9834,11.0051C18.9091,10.9795,18.8264,10.9619,18.7387,10.9436C18.6512,10.9228,18.558,10.9061,18.4607,10.8957ZM17.4281,11.0758C17.469,11.0733,17.5103,11.0708,17.5519,11.0683L17.4298,11.0745C17.4293,11.0749,17.4287,11.0754,17.4281,11.0758ZM14.413,14.8283C14.2124,14.8116,14.077,14.7899,14.077,14.7899L14.0992,14.801C14.1427,14.8223,14.2486,14.8699,14.3978,14.9122C14.4971,14.9399,14.615,14.9662,14.7428,14.9826C14.8703,15.0019,15.008,15.0077,15.1456,15.01C15.2831,15.0085,15.4205,14.9999,15.5479,14.9827C15.6754,14.9639,15.7936,14.9421,15.8927,14.9136C15.9926,14.8901,16.0726,14.8568,16.1291,14.8379C16.1855,14.8174,16.217,14.8036,16.217,14.8036C16.217,14.8036,16.1824,14.8046,16.1231,14.8096C16.0639,14.8158,15.9794,14.8223,15.8785,14.8291C15.6776,14.8453,15.4114,14.8622,15.1453,14.8606C14.8795,14.8614,14.6136,14.8471,14.413,14.8283ZM15.335,15.732C15.2881,15.7601,15.2381,15.7901,15.1571,15.7901C15.076,15.7901,15.026,15.7602,14.9791,15.732C14.9111,15.6913,14.8497,15.6544,14.7095,15.7186C13.6687,16.1945,13.1329,16.2508,12.8702,16.2783C12.668,16.2995,12.6275,16.3038,12.6429,16.4693C12.6705,16.7654,13.2004,17.0658,13.9063,16.885C13.9366,16.9029,13.969,16.9208,14.0035,16.9385C14.0727,16.978,14.1523,17.0097,14.2368,17.0446C14.3231,17.0716,14.4127,17.1107,14.5108,17.1284C14.6078,17.1514,14.7087,17.1747,14.8135,17.1823C14.9176,17.1976,15.0244,17.1952,15.131,17.1992C15.2377,17.1984,15.3435,17.1818,15.4478,17.1737C15.5514,17.1598,15.6511,17.1308,15.7483,17.1109C15.844,17.0848,15.9337,17.0489,16.0188,17.0186C16.1049,16.9909,16.1788,16.9445,16.2493,16.9103L16.3295,16.8695C17.0532,17.1133,17.5363,16.8991,17.5644,16.5927C17.5816,16.4042,17.5545,16.3906,17.3133,16.3315L17.205,16.3048C16.9237,16.2346,16.4363,16.099,15.6045,15.7186C15.4643,15.6544,15.4029,15.6913,15.335,15.732ZM15.4399,16.618C15.5576,16.5797,15.6261,16.5574,16.037,16.7509L16.0899,16.7743C16.0469,16.7857,16.0022,16.7973,15.9551,16.805C15.8722,16.8203,15.7847,16.8367,15.6943,16.8534C15.6036,16.8643,15.51,16.8755,15.4149,16.8869C15.3802,16.8883,15.3453,16.8908,15.3103,16.8932C15.2492,16.8975,15.1877,16.9019,15.1262,16.9004C15.0988,16.9003,15.0713,16.9006,15.0438,16.901C14.9746,16.902,14.9056,16.9029,14.8378,16.8951C14.7426,16.8893,14.6486,16.8841,14.5583,16.8703C14.4674,16.8612,14.3808,16.8421,14.2967,16.8307C14.2154,16.8097,14.1347,16.799,14.0632,16.7787L14.1631,16.801C14.2008,16.7857,14.2389,16.7691,14.2773,16.7509C14.6879,16.5575,14.7564,16.5797,14.8741,16.618C14.936,16.6381,15.0114,16.6627,15.1571,16.6627C15.3027,16.6627,15.3781,16.6381,15.4399,16.618ZM20.8729,21.8193C20.5881,21.7348,20.3207,21.6563,20.0843,21.5875L20.0831,21.585L20.08,21.5756C20.1868,21.5116,20.2792,21.4516,20.3532,21.4018C20.5184,21.591,20.7058,21.7258,20.8729,21.8193ZM10.1043,21.5934C9.94308,21.6404,9.76781,21.6917,9.58273,21.7463C9.73369,21.6869,9.89285,21.6027,9.9687,21.4932C10.0101,21.5251,10.0554,21.5588,10.1043,21.5934ZM9.9687,21.4932L9.96622,21.4913L9.98873,21.4598C9.98293,21.4712,9.97622,21.4823,9.9687,21.4932Z" fill-rule="evenodd" fill="#4A4A4A" fill-opacity="1"/></g></g></svg>